<svg version="1.1" xmlns="http://www.w3.org/2000/svg" xmlns:xlink="http://www.w3.org/1999/xlink" width="48" height="48"><defs><linearGradient x1="6.1135" y1="7.74087" x2="89.78405" y2="88.15665" gradientUnits="userSpaceOnUse" id="color-1"><stop offset="0" stop-color="#000000" stop-opacity="0.19"></stop><stop offset="1" stop-color="#000000" stop-opacity="0"></stop></linearGradient><filter id="dropshadow-base"><feColorMatrix type="matrix" values="0 0 0 0 0  0 0 0 0 0  0 0 0 0 0  0 0 0 .8 0"></feColorMatrix> <feOffset dx="0" dy="1"></feOffset> <feGaussianBlur stdDeviation="1"></feGaussianBlur> <feComposite in="SourceGraphic"></feComposite></filter><filter id="dropshadow-banner" x="-10%" y="-10%" width="120%" height="130%"><feColorMatrix type="matrix" values="0 0 0 0 0  0 0 0 0 0  0 0 0 0 0  0 0 0 .4 0"></feColorMatrix> <feOffset dx="0" dy="1"></feOffset> <feGaussianBlur stdDeviation="0.5"></feGaussianBlur> <feComposite in="SourceGraphic"></feComposite></filter></defs><g fill="none" fill-rule="nonzero" stroke="none" stroke-width="none" stroke-linecap="butt" stroke-linejoin="miter" stroke-miterlimit="10" stroke-dasharray="" stroke-dashoffset="0" font-family="none" font-weight="none" font-size="none" text-anchor="none" style="mix-blend-mode: normal"><path d="M2,24c0,-12.15026 9.84974,-22 22,-22c12.15026,0 22,9.84974 22,22c0,12.15026 -9.84974,22 -22,22c-12.15026,0 -22,-9.84974 -22,-22z" id="base 1 5" fill="#7ba4a8" stroke-width="1"></path><path d="M11.18258,36.31399c-3.66523,-3.66523 -5.49126,-8.87802 -4.98645,-14.26874c0.20096,-2.1557 0.51152,-3.41624 1.31534,-5.29792c1.35188,-3.16048 3.90949,-6.19308 6.77767,-8.05648l-0.00002,-0.00002c0.80382,-0.5298 1.49803,-0.94997 1.55284,-0.94997c0.00797,0.0016 0.01914,0.00931 0.03425,0.02442l9.8113,9.8113c2.15035,-3.28922 5.25428,-8.14942 5.71936,-9.03188c0.21922,-0.43845 0.47499,-0.80382 0.54806,-0.80382c0.07308,0 0.56632,0.25576 1.09612,0.5846c1.33726,0.81112 2.5459,1.7567 3.61075,2.82155l9.00237,9.00237c0.22072,1.25028 0.33584,2.537 0.33584,3.8506c0,12.15026 -9.84974,22 -22,22c-1.15327,0 -2.28581,-0.08874 -3.39117,-0.25976z" fill="url(#color-1)" stroke-width="1"></path><path d="M14.28913,8.69086c-2.86818,1.8634 -5.42579,4.896 -6.77767,8.05648c-0.80382,1.88167 -1.11439,3.14221 -1.31534,5.29791c-0.51152,5.46233 1.37015,10.74197 5.13349,14.41397c1.27881,1.24227 3.19702,2.70376 3.58066,2.70376c0.14615,0 1.04131,-1.40669 1.77206,-2.75857c0.03654,-0.05481 -0.60287,-0.62113 -1.38842,-1.26054c-1.64418,-1.27881 -2.86818,-2.70376 -3.89122,-4.51236c-0.69421,-1.20573 -1.58937,-3.89122 -1.58937,-4.73158v-0.43845h14.15821h14.15821v0.52979c0,0.8769 -1.04131,3.79988 -1.84513,5.13349c-1.31534,2.22878 -4.03737,4.69505 -6.30269,5.68155c-0.43845,0.20096 -0.80382,0.40191 -0.80382,0.45672c0,0.23749 1.69899,2.99606 1.84513,2.99606c0.31057,0 1.66245,-0.74902 2.99606,-1.64418c7.08824,-4.78639 9.81027,-14.08514 6.4123,-21.92239c-1.49803,-3.47105 -4.03737,-6.33923 -7.38054,-8.36705c-0.52979,-0.32884 -1.02305,-0.5846 -1.09612,-0.5846c-0.07307,0 -0.32884,0.36537 -0.54806,0.80382c-0.71248,1.35188 -7.61803,12.03905 -7.80072,12.11212c-0.10961,0.01827 -0.3471,-0.25576 -0.56633,-0.6394c-0.20096,-0.36537 -1.02305,-1.79033 -1.8086,-3.14221c-0.78555,-1.35188 -2.02782,-3.48931 -2.7403,-4.74985c-2.04609,-3.54412 -2.55761,-4.36621 -2.64896,-4.38448c-0.05481,0 -0.74902,0.42018 -1.55284,0.94997zM36.2846,16.47331c0.82209,1.38842 1.84513,4.23833 1.84513,5.15176v0.54806h-5.66328c-3.10567,0 -5.66328,-0.07307 -5.66328,-0.14615c0,-0.07307 0.38364,-0.71248 0.84036,-1.40669c0.45672,-0.71248 1.35188,-2.1009 1.97302,-3.10567c0.6394,-1.00478 1.62591,-2.55761 2.21051,-3.47105l1.05958,-1.62591l1.31534,1.37015c0.73075,0.76728 1.66245,1.97302 2.08263,2.68549zM15.73236,13.9157c0.40191,0.67594 0.98651,1.68072 1.29707,2.22878c0.32884,0.54806 1.16919,2.00955 1.89994,3.21528c0.71248,1.224 1.35188,2.35666 1.40669,2.52108c0.10961,0.25576 -0.38364,0.2923 -5.20657,0.2923h-5.31618v-0.51152c0,-0.91343 1.04131,-3.83642 1.82687,-5.17003c0.67594,-1.15093 2.97779,-3.81815 3.27009,-3.81815c0.05481,0 0.43845,0.56633 0.82209,1.24227z" fill="none" stroke-width="0"></path><path d="M15.84197,7.74089c0.09134,0.01827 0.60287,0.84036 2.64896,4.38448c0.71248,1.26054 1.95475,3.39797 2.7403,4.74985c0.78555,1.35188 1.60764,2.77684 1.8086,3.14221c0.21922,0.38364 0.45672,0.65767 0.56633,0.6394c0.18269,-0.07307 7.08824,-10.76024 7.80072,-12.11212c0.21922,-0.43845 0.47499,-0.80382 0.54806,-0.80382c0.07307,0 0.56633,0.25576 1.09612,0.5846c3.34316,2.02782 5.88251,4.896 7.38054,8.36705c3.39797,7.83726 0.67594,17.136 -6.4123,21.92239c-1.33361,0.89516 -2.68549,1.64418 -2.99606,1.64418c-0.14615,0 -1.84513,-2.75857 -1.84513,-2.99606c0,-0.05481 0.36537,-0.25576 0.80382,-0.45672c2.26531,-0.98651 4.98734,-3.45278 6.30269,-5.68155c0.80382,-1.33361 1.84513,-4.2566 1.84513,-5.13349v-0.52979h-28.31642v0.43845c0,0.84036 0.89516,3.52585 1.58937,4.73158c1.02305,1.8086 2.24705,3.23355 3.89122,4.51236c0.78555,0.6394 1.42496,1.20573 1.38842,1.26054c-0.73075,1.35188 -1.62591,2.75857 -1.77206,2.75857c-0.38364,0 -2.30185,-1.46149 -3.58066,-2.70376c-3.76334,-3.672 -5.64502,-8.95164 -5.13349,-14.41397c0.20096,-2.1557 0.51152,-3.41624 1.31534,-5.29791c1.35188,-3.16048 3.90949,-6.19308 6.77767,-8.05648c0.80382,-0.52979 1.49803,-0.94997 1.55284,-0.94997zM34.20197,13.78782l-1.31534,-1.37015l-1.05958,1.62591c-0.5846,0.91343 -1.5711,2.46627 -2.21051,3.47105c-0.62113,1.00478 -1.5163,2.39319 -1.97302,3.10567c-0.45672,0.69421 -0.84036,1.33361 -0.84036,1.40669c0,0.07307 2.55761,0.14615 5.66328,0.14615h5.66328v-0.54806c0,-0.91343 -1.02305,-3.76334 -1.84513,-5.15176c-0.42018,-0.71248 -1.35188,-1.91821 -2.08263,-2.68549zM14.91027,12.67343c-0.2923,0 -2.59415,2.66722 -3.27009,3.81815c-0.78555,1.33361 -1.82687,4.2566 -1.82687,5.17003v0.51152h5.31618c4.82293,0 5.31618,-0.03654 5.20657,-0.2923c-0.05481,-0.16442 -0.69421,-1.29707 -1.40669,-2.52108c-0.73075,-1.20573 -1.5711,-2.66722 -1.89994,-3.21528c-0.31057,-0.54806 -0.89516,-1.55284 -1.29707,-2.22878c-0.38364,-0.67594 -0.76728,-1.24227 -0.82209,-1.24227z" fill="#4dff00" stroke-width="0"></path><path d="M2,24c0,-12.15026 9.84974,-22 22,-22c12.15026,0 22,9.84974 22,22c0,12.15026 -9.84974,22 -22,22c-12.15026,0 -22,-9.84974 -22,-22z" id="base 1 1 1" fill="none" stroke-width="1"></path><g fill="#000000" stroke-width="1" font-family="Roboto, sans-serif" font-weight="400" font-size="14" text-anchor="start"><g></g></g><rect x="2" y="2" width="44" height="22" fill="none" stroke-width="1"></rect><path d="M2,24v-22h44v22z" fill="none" stroke-width="1"></path><path d="M2,24v-22h44v22z" fill="none" stroke-width="1"></path><path d="M2,24v-22h44v22z" fill="none" stroke-width="1"></path><path d="M2,24v-22h44v22z" fill="none" stroke-width="1"></path></g></svg>